# xmcd
#
# Track frame offsets: 
#        150
#        24800
#        51092
#        65627
#        92427
#        146055
#        179505
#
# Disc length: 2678 seconds
#
# Revision: 1
# Processed by: cddbd v1.5.2PL0 Copyright (c) Steve Scherf et al.
# Submitted via: ExactAudioCopy v0.95b4
#
DISCID=590a7407
DTITLE=The Crusaders - The Crusaders Best Collection Disc2
DYEAR=1900
DGENRE=Jazz
TTITLE0=Put It Where You Want It
TTITLE1=Stomp And Buck Dance
TTITLE2=Greasy Spoon
TTITLE3=Scratch
TTITLE4=So Far Away
TTITLE5=Hard Times
TTITLE6=So Far Away-Live
EXTD=
EXTT0=
EXTT1=
EXTT2=
EXTT3=
EXTT4=
EXTT5=
EXTT6=
PLAYORDER=
